# xmcd CD database file
#
# Track frame offsets:
#	150
#	12488
#	25045
#	38427
#	52230
#	68363
#	82908
#	93867
#	115211
#	129383
#	143780
#	159177
#	181395
#	195895
#	205989
#	227060
#
# Disc length: 3206 seconds
#
# Revision: 0
# Processed by: cddbd v1.5.2PL0 Copyright (c) Steve Scherf et al.
# Submitted via: CDex 1.51
#
DISCID=bf0c8410
DTITLE=Big Bill Broonzy - See See Rider
DYEAR=1900
DGENRE=Blues
TTITLE0=Mountain Blues
TTITLE1=I Want To Go Home
TTITLE2=At The Break Of Day
TTITLE3=The Sun Gonna Shine In My Door Someday
TTITLE4=The Southern Blues
TTITLE5=I Can´t MakebYou Satisfied
TTITLE6=St. Louis Blues
TTITLE7=Feelin´ Lowdown
TTITLE8=All I Got Belongs To You
TTITLE9=Baby Please Don´t Go
TTITLE10=In The Evenin´
TTITLE11=Ridin´OnDown
TTITLE12=Treat Everybody Right
TTITLE13=Sixteen Tons
TTITLE14=I Got Up On Mornin´ Blues
TTITLE15=See See Rider
EXTD=
EXTT0=
EXTT1=
EXTT2=
EXTT3=
EXTT4=
EXTT5=
EXTT6=
EXTT7=
EXTT8=
EXTT9=
EXTT10=
EXTT11=
EXTT12=
EXTT13=
EXTT14=
EXTT15=
PLAYORDER=
